<svg xmlns="http://www.w3.org/2000/svg" xml:space="preserve" width="462.75" height="110" viewBox="-12.25 0 462.75 110"><path d="M10.563 28.425H7.998v68.384h2.563l.002-68.384zm-8.334-8.424c0 .088-.09.129-.045.217.021.048.064.086.097.118.06.039.109.039.138.097-.155.069-.026.238-.021.367.213-.008.29.127.406.2.154.104.315.152.534.204.155.15.374.189.649.232.116.019.251.054.361.066.419.038.812 0 1.218.013.183.013.361.062.503.056.109-.011.266-.043.36-.056.046 0 .091.007.123 0 .084-.013.135-.073.219-.079.174-.018.374.019.567.013.181 0 .361-.02.548-.03 1.579-.066 3.068-.02 4.551-.039.188 0 .367-.006.556-.013.503-.006.991.148 1.502.032.097.082.069.148.146.188.09.045.167.023.251 0 .045-.014.123-.007.148-.016.084-.036.115-.116.2-.135a.684.684 0 0 1 .197 0c.148.013.259.072.389.013.02-.056.062-.056.097-.114.045-.084.007-.199.052-.251.06-.073.104 0 .183-.048.052-.244.251-.333.204-.636-.129-.084-.02-.264-.104-.38.084-.129.046-.265.052-.406 0-.054.032-.109.032-.161 0-.283-.104-.374-.167-.567-.021-.062-.014-.129-.032-.187-.084-.213-.304-.432-.438-.587-.099-.105-.144-.193-.267-.213-.181-.038-.275.143-.503.116-.083.091-.199.091-.296.148-.084.052-.129.148-.22.2a1.257 1.257 0 0 1-.349.167c-.104.03-.199.026-.314.037-.155.013-.316.072-.483.079-.23.013-.471.039-.688.02-.328-.026-.67-.097-1.012-.064-.483.038-.979.052-1.42.045-2.05-.007-4.351-.007-6.387-.013-.252 0-.481-.041-.716.013-.084 0-.071.09-.122.116-.078-.013-.11-.071-.2-.08-.051-.003-.113.027-.18.033-.013.123-.097.209-.135.318-.061.161-.064.342-.123.516-.131.071-.164.329-.061.451m9.61-18.446c-.013-.048-.077-.041-.116-.048-.23-.056-.464-.229-.638-.387-.007-.062.023-.107 0-.133-.032-.045-.136-.021-.116-.131.077-.102.264-.062.374-.102 0-.047-.059-.025-.091-.034-.109-.038-.213-.088-.328-.133-.155-.059-.312-.129-.465-.168-.206-.142-.451-.342-.67-.414-.051-.017-.109.009-.206.016-.206.017-.322.077-.477.116a2.24 2.24 0 0 0-.419.135c-.174.084-.32.277-.516.2-.045-.097.11-.129.032-.148a.934.934 0 0 0-.347.148c-.122.088-.297.148-.367.264-.045.076-.052.206-.104.323-.025.057-.09.109-.116.165-.019.041-.032.118-.045.18-.07.234-.024.479-.09.718-.019.088-.096.154-.109.251-.02.064-.03.168-.039.265-.013.103-.02.287.021.416.023.104.097.164.146.254.038.071.053.161.083.213.071.135.183.264.271.387.103.154.187.315.264.399a.824.824 0 0 0 .221.168c.114.045.16-.02.243-.035.215-.038.529.035.703-.101.09.02.161-.045.245-.066.077-.013.161 0 .238-.013.142-.03.29-.104.432-.136.06-.011.122 0 .168-.018.083-.032.144-.115.238-.154.103-.032.199-.02.29-.061.045-.013.032-.075.07-.088.275-.146.51-.348.869-.412-.16-.129.031-.381.231-.303.039-.02-.058-.054-.032-.116.007-.054.077-.032.064-.099a.266.266 0 0 1-.219-.166c.058-.135.075-.393 0-.505.013-.03.068-.011.051-.062-.135-.019-.238-.201-.367-.283a.487.487 0 0 1 0-.234c.091-.075.258-.056.367-.017.043-.099.14-.045.256-.051m6.806 10.11c.091-.185.061-.374.052-.584 0-.148.021-.29 0-.419-.013-.071-.058-.136-.062-.2-.052-.247-.058-.496-.09-.767-.021-.193-.123-.354-.109-.548-.143-.29-.368-.49-.49-.787-.152-.142-.29-.335-.464-.432-.161-.092-.31-.187-.471-.271-.161-.086-.303-.219-.464-.297-.084-.045-.174-.072-.252-.135a.886.886 0 0 0-.35.013c-.342-.154-.845 0-1.235.023-.077.073-.222.086-.284.181-.219.034-.354.238-.496.331-.058.038-.109.038-.154.068-.069.048-.136.174-.245.148-.045-.007-.146-.159-.204-.229-.104-.143-.176-.297-.329-.336-.032-.18-.214-.212-.238-.399-.367-.124-.567-.419-.915-.567-.071-.135-.142-.264-.335-.283-.064-.161-.245-.222-.465-.234-.062-.088-.165-.081-.255-.133-.054-.032-.09-.077-.148-.104a1.415 1.415 0 0 0-.482-.116c-.122 0-.266.064-.419.069-.178.007-.378-.031-.59-.031-.191 0-.413.079-.58.066-.051-.006-.103-.034-.148-.034-.129 0-.2.111-.303.15-.064.02-.148.013-.213.032-.076.026-.135.082-.205.101-.111.035-.226.029-.304.067-.058.032-.115.096-.174.153-.025.019-.07.034-.102.065-.027.021-.039.079-.072.098-.039.032-.109.038-.148.07-.174.124-.206.366-.38.469-.032.093-.104.174-.155.247-.058.077-.109.165-.18.232-.245-.175-.49-.342-.703-.548-.213-.02-.449-.021-.632-.067-.109.068-.251.046-.399.068-.09.006-.167.025-.251.032-.123.006-.245-.032-.368-.032-.213 0-.435.142-.664.161-.091.013-.183-.007-.252 0-.206.038-.295.154-.418.238-.065.045-.167.033-.167.114-.061.02-.104.048-.168.067-.122.204-.406.335-.6.516-.103.1-.206.242-.313.367-.112.127-.228.231-.337.354-.091.103-.181.238-.297.38-.155.181-.407.353-.258.587a.579.579 0 0 0-.075.367 2.415 2.415 0 0 0-.238.78c0 .064.013.135 0 .199 0 .052-.026.088-.026.136-.045.444 0 .938.064 1.366.024.206.02.412.069.623.025.144.077.283.092.415.084.509.198 1.093.354 1.482.026.075.039.154.064.217.02.034.069.06.091.099.02.045.023.097.045.148.116.288.271.6.438.818.015.023.021.052.032.064.174.277.425.548.696.689 0 .045.038.075.062.097.154.129.367.181.566.269.104.041.2.093.304.116.129.028.258.009.399.032.058.015.107.041.167.047.297.069.658.026.954.02.052-.006.013-.092.052-.116.354.084.632-.362.593-.586-.013-.093-.135-.271-.264-.245-.064-.045-.007-.215-.155-.187-.103-.02 0 .167-.097.154-.07-.007-.077.02-.129 0-.038-.073-.006-.187.052-.251.129-.039.219-.02.329-.067.019-.262-.2-.309-.168-.532-.058-.045-.116-.091-.181-.123-.008-.072-.092-.077-.104-.147-.129-.035-.29-.035-.419-.064-.175-.123-.304-.297-.445-.451.015-.067-.013-.097-.02-.148-.122-.136-.188-.29-.264-.451-.039-.084-.099-.168-.104-.238-.013-.112.039-.234-.02-.361a.535.535 0 0 1-.131-.254c-.103-.391-.068-.947-.03-1.364.007-.109 0-.212.014-.303.013-.058.038-.111.051-.163.021-.122.021-.224.052-.333.086-.305.206-.634.232-.941.032-.006.116.032.104-.025.084-.142.129-.318.198-.473.144-.056.221-.185.329-.269.328.09.438-.15.573-.315.148.077.136-.054.2-.097.163.097.228.301.317.464.032.07.084.116.099.167.044.184-.047.469-.08.734-.015.12-.021.238-.032.367-.013.122-.058.238-.064.348-.013.116.021.243.015.349-.006.135-.038.238-.032.354.002.084.041.174.047.264.007.084-.013.168 0 .252.021.187.099.354.116.539.032.247.013.453.032.729.013.054.058.066.062.116.032.183.007.376.032.554.013.054.052.109.058.163 0 .052-.019.116-.019.168 0 .174.07.358.083.535.007.075-.006.142 0 .217.014.105.078.208.104.312.025.161 0 .335.047.49.02.064.091.097.084.18a.336.336 0 0 1 .251.316c.191.12.359.271.632.371.059.02.116.016.168.028.062.02.122.068.187.084.213.064.438.017.646.07.069.014.116.064.188.082a.464.464 0 0 0 .115.015c.252.005.329-.15.548-.167.039-.136.175-.222.221-.349.021-.066.007-.163.037-.251.016-.052.054-.093.064-.148.02-.163-.058-.317-.09-.498-.06-.43.069-.72.052-1.07.006-.049.084-.023.064-.101.03-.31.013-.689-.015-.967-.052-.612.015-1.291-.014-1.85-.006-.123-.006-.267-.038-.351-.02-.075-.142-.165-.168-.249-.006-.052.026-.123.02-.17-.013-.173-.104-.345-.097-.5-.058-.07-.142-.129-.187-.215-.009-.013 0-.056-.016-.081-.058-.116.007-.238.046-.387.032-.112.07-.22.104-.316.107-.337.22-.645.381-.897.18-.288.36-.591.548-.804.387.071.425-.2.67-.267.116.08.161.245.2.387.045.15.097.335.104.499 0 .068-.038.129-.038.199 0 .064.03.152.038.232 0 .075-.015.161 0 .217.013.086.084.163.104.247.025.206.021.432.025.638.007.123-.015.245-.021.365 0 .091.026.17.021.252 0 .041-.025.086-.025.131-.007.107.025.213.025.322 0 .191-.032.391-.045.6a89.486 89.486 0 0 0-.188 4.898c.025.064.129.056.154.12a.416.416 0 0 0 .058.251c.052.048.136.048.239.1.045.023.077.083.135.115.039.024.116.046.168.064.148.071.283.078.464.121.099.015.193.06.29.079.071.02.174.02.267.036.083.02.174.041.242.052.344.028.567-.152.725-.288.038-.032.115-.021.161-.051.023-.091 0-.188.019-.277.021-.071.091-.142.104-.202.02-.107 0-.243.013-.385.026-.226.039-.438.052-.65.007-.118.025-.232.014-.336-.007-.064-.031-.122-.024-.18 0-.059.024-.118.024-.168.014-.097-.014-.181-.014-.283.007-.471.183-.98.213-1.47.025-.303.021-.563.054-.8.051-.328.12-.599.167-.865.129-.308.265-.688.335-1.004.114-.09.23-.111.314-.247.09-.152.032-.387.09-.591.009-.032.045-.099.064-.142.013-.064.077-.073.116-.122.023-.041.013-.093.062-.116.168 0 .193-.168.283-.283.084-.1.213-.168.316-.229.236.136.229.473.281.812.032.24.084.492.104.718.052.804-.071 1.744-.052 2.466-.344.325-.625.703-.734 1.253-.175.229-.213.593-.349.851v.181c-.214.104-.116.442-.07.638.083.02.146-.04.199 0 .052.123.062.271.146.381.015.013.045.011.071.038.063.057.109.123.212.168.046.013.104 0 .155.013.135.039.251.136.313.152.061.014.148-.011.213 0 .144.014.271.093.389.1.136 0 .258-.078.387-.067.084.003.045.129.161.1.104-.026.116-.136.238-.168.104-.025.226.032.335-.032 0-.09 0-.181-.021-.251.06-.014.083-.071.129-.097.07-.387.188-.723.283-1.07.188-.206.271-.512.419-.748.143-.104.265-.24.399-.354.007-.099.013-.103 0-.199.059-.084.129-.155.188-.232.045-.154.032-.296.032-.451.006-.058.032-.116.038-.183 0-.146 0-.277.013-.397.015-.231-.019-.479 0-.702.016-.119.048-.228.009-.334M49.385 29.132c0 1.985-.481 3.638-1.443 4.959-.963 1.325-2.282 2.272-3.971 2.842l8.254 15.379h-2.84l-8.074-14.883h-4.6v14.883h-2.662V21.104h6.54c2.798 0 4.963.677 6.497 2.03 1.534 1.353 2.299 3.351 2.299 5.998zm-8.796-5.638h-3.878v11.544h3.878c1.955 0 3.444-.516 4.465-1.554 1.022-1.037 1.534-2.475 1.534-4.308 0-1.805-.505-3.201-1.511-4.193-1.007-.993-2.5-1.489-4.488-1.489zM52.406 40.271c0-3.67 1.19-6.667 3.564-8.998 2.374-2.328 5.305-3.495 8.794-3.495 3.488 0 6.41 1.173 8.773 3.52 2.357 2.346 3.537 5.336 3.537 8.974 0 3.607-1.195 6.585-3.584 8.931-2.391 2.342-5.328 3.516-8.817 3.516-3.521 0-6.44-1.149-8.771-3.448-2.329-2.303-3.496-5.302-3.496-9zm2.707 0c0 2.976.902 5.405 2.703 7.283 1.807 1.88 4.107 2.816 6.905 2.816 2.793 0 5.1-.943 6.922-2.838 1.817-1.895 2.729-4.316 2.729-7.262s-.911-5.375-2.729-7.283c-1.822-1.91-4.129-2.864-6.922-2.864-2.798 0-5.101.954-6.905 2.864-1.801 1.909-2.703 4.339-2.703 7.284zM86.953 60.207h-2.662l3.158-7.896-10.238-24.126h2.931l8.706 20.792 8.164-20.792h2.84L86.953 60.207zM100.484 44.919c0-2.284.743-4.166 2.229-5.64 1.491-1.472 3.421-2.211 5.797-2.211 1.266 0 2.406.231 3.429.7 1.021.466 1.788 1.031 2.299 1.69v-3.203c0-2.013-.466-3.545-1.396-4.598-.933-1.055-2.272-1.579-4.018-1.579-1.682 0-2.93.451-3.74 1.354-.812.903-1.248 2.059-1.311 3.475h-2.479c.026-2.018.698-3.685 2.009-5.009 1.307-1.321 3.176-1.984 5.616-1.984 2.61 0 4.583.749 5.908 2.256 1.317 1.504 1.979 3.577 1.979 6.222v15.92h-2.569v-2.207c-1.321 1.743-3.229 2.613-5.728 2.613-2.316 0-4.232-.712-5.749-2.141-1.518-1.426-2.276-3.314-2.276-5.658zm2.569 0c0 1.622.52 2.969 1.556 4.034 1.04 1.068 2.385 1.603 4.034 1.603 1.659 0 3.017-.534 4.085-1.603 1.067-1.065 1.603-2.412 1.603-4.034 0-1.625-.542-2.979-1.625-4.061-1.082-1.083-2.451-1.625-4.103-1.625-1.687 0-3.027.535-4.037 1.599-1.01 1.07-1.513 2.43-1.513 4.087zM124.568 19.344v32.968h-2.615V19.344h2.615zM166.058 24.983l-11.814 27.328h-2.799l-11.902-27.328v27.328h-2.527V21.104h3.788l12.132 28.37 12.133-28.37h3.652v31.208h-2.66l-.003-27.329zM176.614 28.185v15.694c0 4.211 1.714 6.316 5.143 6.316 1.743 0 3.09-.591 4.035-1.76.943-1.173 1.42-2.77 1.42-4.782V28.185h2.617v24.127h-2.617V49.7c-1.08 1.923-2.99 2.883-5.728 2.883-2.557 0-4.44-.773-5.657-2.32-1.222-1.549-1.828-3.586-1.828-6.112V28.185h2.615zM196.635 33.865c0 1.746.887 3.022 2.664 3.835.507.242 1.263.502 2.251.79.993.286 1.745.535 2.256.743 1.564.632 2.737 1.475 3.521 2.524.777 1.053 1.173 2.424 1.173 4.106 0 2.045-.724 3.676-2.166 4.894-1.443 1.219-3.268 1.824-5.457 1.824-2.556 0-4.449-.711-5.687-2.14-1.229-1.427-1.846-3.255-1.846-5.48h2.567c.125 3.579 1.816 5.382 5.097 5.409 1.357.032 2.505-.335 3.454-1.102.945-.768 1.418-1.84 1.418-3.226 0-2.165-1.082-3.667-3.248-4.512-.419-.178-1.164-.438-2.23-.765-1.063-.331-1.888-.632-2.457-.902-2.587-1.263-3.878-3.216-3.878-5.865 0-1.83.633-3.307 1.895-4.417 1.263-1.113 2.915-1.669 4.963-1.669 2.342 0 4.062.652 5.16 1.961 1.096 1.309 1.661 2.984 1.691 5.032h-2.479c-.152-3.221-1.624-4.828-4.42-4.828-1.293 0-2.322.331-3.089.993-.769.661-1.153 1.594-1.153 2.795zM234.428 40.991h-20.791c.15 2.888 1.074 5.176 2.771 6.857 1.7 1.685 3.917 2.522 6.654 2.522 4.059 0 7.047-1.998 8.979-5.994l2.023.9c-.9 2.226-2.301 4.021-4.189 5.391-1.896 1.366-4.164 2.05-6.812 2.05-3.607 0-6.535-1.149-8.771-3.448-2.242-2.302-3.362-5.301-3.362-8.998 0-3.638 1.106-6.628 3.313-8.974 2.213-2.347 5.029-3.52 8.456-3.52 3.489 0 6.302 1.053 8.438 3.158 2.131 2.104 3.244 4.959 3.334 8.568a18.12 18.12 0 0 1-.043 1.488zM222.61 30.124c-2.433 0-4.456.761-6.062 2.277-1.609 1.52-2.55 3.629-2.818 6.336h17.995c-.12-2.707-1.014-4.816-2.684-6.336-1.67-1.516-3.815-2.277-6.431-2.277zM240.605 28.185v15.694c0 4.211 1.714 6.316 5.146 6.316 1.744 0 3.089-.591 4.034-1.76.948-1.173 1.423-2.77 1.423-4.782V28.185h2.614v24.127h-2.614V49.7c-1.079 1.923-2.991 2.883-5.729 2.883-2.554 0-4.438-.773-5.658-2.32-1.221-1.549-1.824-3.586-1.824-6.112V28.185h2.608zM274.344 36.526v15.785h-2.617V36.572c0-4.209-1.642-6.312-4.918-6.312-1.682 0-2.958.602-3.83 1.805-.875 1.201-1.311 2.855-1.311 4.959v15.288h-2.617V28.185h2.617v2.662c1.143-1.953 2.99-2.933 5.547-2.933 3.068 0 5.126 1.246 6.181 3.744 1.321-2.498 3.427-3.744 6.314-3.744 2.492 0 4.334.767 5.521 2.301 1.19 1.534 1.783 3.547 1.783 6.041v16.056h-2.616V36.526c0-4.179-1.652-6.267-4.959-6.267-1.624 0-2.872.562-3.747 1.69-.867 1.127-1.318 2.655-1.348 4.577zM293.738 33.865c0 1.746.89 3.022 2.657 3.835.516.242 1.266.502 2.256.79.993.286 1.745.535 2.254.743 1.566.632 2.735 1.475 3.521 2.524.784 1.053 1.173 2.424 1.173 4.106 0 2.045-.722 3.676-2.166 4.894-1.443 1.219-3.261 1.824-5.454 1.824-2.557 0-4.452-.711-5.686-2.14-1.232-1.427-1.85-3.255-1.85-5.48h2.57c.12 3.579 1.819 5.382 5.096 5.409 1.354.032 2.501-.335 3.452-1.102.948-.768 1.418-1.84 1.418-3.226 0-2.165-1.082-3.667-3.246-4.512-.421-.178-1.164-.438-2.23-.765-1.067-.331-1.888-.632-2.46-.902-2.582-1.263-3.875-3.216-3.875-5.865 0-1.83.631-3.307 1.891-4.417 1.264-1.113 2.917-1.669 4.963-1.669 2.344 0 4.068.652 5.164 1.961 1.099 1.309 1.659 2.984 1.691 5.032h-2.481c-.147-3.221-1.624-4.828-4.417-4.828-1.294 0-2.324.331-3.092.993-.769.661-1.149 1.594-1.149 2.795zM32.516 84.014c0-3.664 1.189-6.664 3.563-8.998 2.374-2.324 5.31-3.492 8.794-3.492 3.487 0 6.415 1.172 8.772 3.521 2.358 2.345 3.54 5.337 3.54 8.974 0 3.607-1.192 6.584-3.588 8.93-2.389 2.348-5.328 3.521-8.814 3.521-3.518 0-6.441-1.149-8.771-3.452-2.33-2.303-3.496-5.305-3.496-9.004zm2.707 0c0 2.979.902 5.405 2.707 7.283 1.8 1.883 4.105 2.821 6.9 2.821 2.797 0 5.101-.948 6.922-2.839 1.818-1.896 2.729-4.315 2.729-7.266 0-2.943-.906-5.371-2.729-7.283-1.821-1.908-4.125-2.861-6.922-2.861-2.795 0-5.103.953-6.9 2.861-1.805 1.913-2.707 4.34-2.707 7.284zM63.909 69.898v2.031h4.733v2.297h-4.733v21.83h-2.617v-21.83h-2.614V71.93h2.614v-1.94c0-4.604 2.076-6.898 6.227-6.898h1.266v2.298h-1.223c-1.441 0-2.413.385-2.909 1.15-.497.767-.744 1.887-.744 3.358zM91.69 81.131h-9.967v14.928h-2.664V64.846h12.899v2.44H81.723v11.407h9.967v2.438zM99.014 68.162c-.404.406-.906.609-1.511.609-.601 0-1.104-.203-1.508-.609-.406-.403-.608-.908-.608-1.512 0-.6.202-1.104.608-1.51.404-.402.907-.609 1.508-.609.604 0 1.104.207 1.511.609.408.403.61.91.61 1.51.001.604-.202 1.109-.61 1.512zm-.202 3.77v24.127h-2.616V71.932h2.616zM117.394 96.059v-15.74c0-4.209-1.742-6.315-5.229-6.315-1.774 0-3.137.589-4.082 1.761-.947 1.174-1.422 2.771-1.422 4.781v15.516h-2.617v-24.13h2.617v2.521c.449-.748 1.173-1.405 2.165-1.959.991-.559 2.194-.834 3.607-.834 2.553 0 4.456.773 5.706 2.322 1.246 1.547 1.869 3.584 1.869 6.108v15.966h-2.614v.003zM147.298 84.734h-20.793c.146 2.889 1.072 5.175 2.771 6.857 1.7 1.686 3.917 2.524 6.652 2.524 4.062 0 7.051-1.998 8.974-5.997l2.032.9c-.9 2.229-2.303 4.022-4.198 5.391-1.891 1.367-4.161 2.052-6.808 2.052-3.609 0-6.534-1.147-8.771-3.452-2.238-2.297-3.36-5.299-3.36-8.996 0-3.637 1.104-6.63 3.313-8.974 2.213-2.349 5.029-3.521 8.456-3.521 3.487 0 6.304 1.054 8.435 3.158 2.136 2.104 3.248 4.961 3.339 8.567.001.667-.014 1.166-.042 1.491zM135.48 73.869c-2.437 0-4.458.76-6.063 2.279-1.607 1.515-2.548 3.629-2.818 6.336h17.995c-.12-2.707-1.017-4.821-2.688-6.336-1.667-1.519-3.81-2.279-6.426-2.279zM180.354 96.059 175.529 84.2h-12.762l-4.647 11.858h-2.62l12.18-31.213h2.752l12.672 31.213h-2.75zm-11.32-27.829-5.323 13.576h10.825l-5.502-13.576zM194.697 71.932V74.5h-.857c-1.714 0-3.006.516-3.876 1.559-.872 1.033-1.31 2.5-1.31 4.396v15.604h-2.615V71.932h2.615v2.702c1.082-1.835 3.094-2.734 6.043-2.702zM201.505 68.273v3.656h5.142v2.297h-5.142v15.789c0 1.381.195 2.362.587 2.953.391.582 1.218.876 2.481.876h2.028v2.304c-.787.06-1.552.09-2.304.09-2.105 0-3.532-.469-4.284-1.398-.752-.931-1.128-2.387-1.128-4.372V74.229h-2.614v-2.297h2.614v-3.656h2.618l.002-.003zM211.562 77.611c0 1.744.89 3.021 2.66 3.834.511.244 1.263.504 2.256.787.992.285 1.744.539 2.256.748 1.563.629 2.737 1.472 3.517 2.522.784 1.054 1.173 2.419 1.173 4.104 0 2.045-.722 3.679-2.165 4.895-1.439 1.217-3.262 1.826-5.455 1.826-2.555 0-4.449-.715-5.683-2.145-1.233-1.428-1.85-3.25-1.85-5.479h2.567c.122 3.579 1.819 5.384 5.098 5.412 1.354.03 2.501-.339 3.451-1.106.949-.766 1.422-1.84 1.422-3.223 0-2.166-1.083-3.67-3.248-4.514-.422-.181-1.167-.435-2.232-.762-1.066-.334-1.889-.635-2.458-.906-2.585-1.26-3.876-3.217-3.876-5.86 0-1.833.632-3.308 1.895-4.42 1.26-1.11 2.914-1.667 4.959-1.667 2.346 0 4.067.652 5.163 1.959 1.098 1.307 1.662 2.984 1.69 5.029h-2.479c-.15-3.217-1.624-4.822-4.419-4.822-1.291 0-2.322.33-3.092.99-.767.666-1.15 1.595-1.15 2.798zM232.668 84.014c0-3.664 1.186-6.664 3.562-8.998 2.374-2.324 5.307-3.492 8.793-3.492 3.489 0 6.411 1.172 8.774 3.521 2.359 2.345 3.536 5.337 3.536 8.974 0 3.607-1.194 6.584-3.585 8.93-2.39 2.348-5.326 3.521-8.815 3.521-3.52 0-6.445-1.149-8.77-3.452-2.328-2.303-3.495-5.305-3.495-9.004zm2.707 0c0 2.979.9 5.405 2.703 7.283 1.805 1.883 4.105 2.821 6.898 2.821 2.797 0 5.104-.948 6.927-2.839 1.817-1.896 2.729-4.315 2.729-7.266 0-2.943-.911-5.371-2.729-7.283-1.82-1.908-4.13-2.861-6.927-2.861-2.793 0-5.096.953-6.898 2.861-1.8 1.913-2.703 4.34-2.703 7.284zM264.057 69.898v2.031h4.737v2.297h-4.737v21.83h-2.617v-21.83h-2.61V71.93h2.61v-1.94c0-4.604 2.076-6.898 6.229-6.898h1.264v2.298h-1.219c-1.443 0-2.412.385-2.911 1.15-.497.767-.746 1.887-.746 3.358zM295.493 87.219c0 2.768-.865 4.93-2.595 6.493-1.729 1.563-3.977 2.347-6.743 2.347h-6.944V64.846h6.537c2.798 0 4.963.67 6.497 2.01 1.532 1.34 2.303 3.332 2.303 5.979 0 3.214-1.28 5.472-3.837 6.765 1.474.541 2.639 1.463 3.493 2.774.859 1.306 1.289 2.92 1.289 4.845zm-9.745-19.981h-3.876v11.501h3.876c1.957 0 3.444-.515 4.469-1.534 1.021-1.021 1.534-2.449 1.534-4.281 0-1.805-.507-3.206-1.515-4.197-1.008-.995-2.503-1.489-4.488-1.489zm.318 13.802h-4.192v12.627h4.192c2.165 0 3.812-.578 4.939-1.737 1.128-1.152 1.688-2.726 1.688-4.711 0-1.925-.557-3.438-1.667-4.535-1.114-1.096-2.767-1.644-4.96-1.644zM322.056 84.734h-20.79c.146 2.889 1.072 5.175 2.771 6.857 1.701 1.686 3.919 2.524 6.653 2.524 4.059 0 7.052-1.998 8.977-5.997l2.03.9c-.9 2.229-2.301 4.022-4.196 5.391-1.895 1.367-4.161 2.052-6.811 2.052-3.609 0-6.535-1.147-8.77-3.452-2.243-2.297-3.362-5.299-3.362-8.996 0-3.637 1.104-6.63 3.312-8.974 2.214-2.349 5.027-3.521 8.457-3.521 3.488 0 6.301 1.054 8.437 3.158 2.133 2.104 3.248 4.961 3.339 8.567.001.667-.019 1.166-.047 1.491zM310.24 73.869c-2.437 0-4.46.76-6.062 2.279-1.611 1.515-2.551 3.629-2.821 6.336h17.995c-.122-2.707-1.016-4.821-2.684-6.336-1.673-1.519-3.811-2.279-6.428-2.279zM328.371 63.09v32.969h-2.614V63.09h2.614zM353.944 76.303v-4.371h2.616v19.979c0 4.267-1.145 7.391-3.429 9.38-2.286 1.98-5.266 2.975-8.931 2.975-3.94 0-7.217-.992-9.834-2.975l1.354-2.079c2.467 1.806 5.307 2.707 8.523 2.707 2.857 0 5.188-.75 6.991-2.252 1.806-1.504 2.707-3.862 2.707-7.081V91.37c-.662 1.291-1.822 2.464-3.475 3.515-1.652 1.053-3.639 1.579-5.953 1.579-3.579 0-6.515-1.149-8.817-3.452-2.299-2.297-3.45-5.299-3.45-8.998 0-3.604 1.167-6.589 3.498-8.947 2.324-2.36 5.25-3.543 8.771-3.543 2.045 0 3.917.451 5.616 1.354 1.697.897 2.968 2.044 3.813 3.425zm-18.99 7.711c0 2.979.896 5.405 2.688 7.283 1.787 1.883 4.078 2.821 6.875 2.821s5.09-.938 6.879-2.821c1.788-1.878 2.684-4.306 2.684-7.283 0-2.943-.902-5.371-2.707-7.283-1.805-1.906-4.088-2.859-6.854-2.859-2.769 0-5.053.953-6.857 2.859-1.804 1.912-2.708 4.339-2.708 7.283zM364.608 68.162c-.408.406-.91.609-1.508.609-.604 0-1.106-.203-1.513-.609-.406-.403-.61-.908-.61-1.512 0-.6.204-1.104.61-1.51.404-.402.907-.609 1.513-.609.598 0 1.1.207 1.508.609.408.403.608.91.608 1.51 0 .604-.2 1.109-.608 1.512zm-.202 3.77v24.127h-2.619V71.932h2.619zM372.115 71.932v15.691c0 4.211 1.715 6.314 5.146 6.314 1.744 0 3.09-.588 4.035-1.762.947-1.173 1.422-2.765 1.422-4.777V71.932h2.615v24.127h-2.615v-2.613c-1.078 1.923-2.99 2.885-5.729 2.885-2.555 0-4.438-.771-5.661-2.324-1.219-1.547-1.822-3.584-1.822-6.109V71.932h2.609zM405.854 80.273v15.783h-2.617V80.318c0-4.209-1.641-6.316-4.917-6.316-1.683 0-2.963.602-3.831 1.805-.874 1.205-1.311 2.857-1.311 4.963v15.289h-2.617V71.932h2.617v2.659c1.143-1.955 2.99-2.931 5.547-2.931 3.068 0 5.127 1.246 6.182 3.74 1.321-2.494 3.429-3.74 6.314-3.74 2.496 0 4.333.765 5.521 2.299 1.188 1.532 1.783 3.545 1.783 6.044v16.056h-2.613V80.273c0-4.181-1.656-6.271-4.963-6.271-1.624 0-2.872.566-3.746 1.693-.868 1.125-1.319 2.657-1.349 4.578z"/></svg>